# xmcd CD database file
#
# Track frame offsets:
#	150
#	21530
#	40213
#	64751
#	95521
#	116102
#	138390
#	156165
#	185730
#	220220
#
# Disc length: 3203 seconds
#
# Revision: 1
# Processed by: cddbd v1.5.2PL0 Copyright (c) Steve Scherf et al.
# Submitted via: CDex 1.51
#
DISCID=960c810a
DTITLE=Fredrik Nordström - Mayday!
DYEAR=2008
DGENRE=Jazz
TTITLE0=Mayday
TTITLE1=Taco Taco
TTITLE2=Slowfox
TTITLE3=Everybody's Song But My Own
TTITLE4=Mars
TTITLE5=Walk the Walk
TTITLE6=Light Blue
TTITLE7=Talk the Talk
TTITLE8=January Rain
TTITLE9=Duquility
EXTD=YEAR: 2008
EXTT0=
EXTT1=
EXTT2=
EXTT3=
EXTT4=
EXTT5=
EXTT6=
EXTT7=
EXTT8=
EXTT9=
PLAYORDER=
